<svg width="16" height="14" viewBox="0 0 16 14" fill="none" xmlns="http://www.w3.org/2000/svg">
<path d="M0.184615 7.61536C0.0615385 7.49228 0 7.30767 0 7.18459C0 7.06151 0.0615385 6.8769 0.184615 6.75382L1.04615 5.89228C1.29231 5.64613 1.66154 5.64613 1.90769 5.89228L1.96923 5.95382L5.35385 9.58459C5.47692 9.70767 5.66154 9.70767 5.78462 9.58459L14.0308 1.03075H14.0923C14.3385 0.784592 14.7077 0.784592 14.9538 1.03075L15.8154 1.89228C16.0615 2.13844 16.0615 2.50767 15.8154 2.75382L5.96923 12.9692C5.84615 13.0923 5.72308 13.1538 5.53846 13.1538C5.35385 13.1538 5.23077 13.0923 5.10769 12.9692L0.307692 7.79998L0.184615 7.61536Z" fill="#0060AA"/>
</svg>
