<svg width="16" height="16" viewBox="0 0 16 16" fill="none" xmlns="http://www.w3.org/2000/svg">
<path fill-rule="evenodd" clip-rule="evenodd" d="M3.5 7C4.66667 9.33333 6.66667 11.25 9 12.5L10.8333 10.6667C11.0833 10.4167 11.4167 10.3333 11.6667 10.5C12.5833 10.8333 13.5833 11 14.6667 11C15.1667 11 15.5 11.3333 15.5 11.8333V14.6667C15.5 15.1667 15.1667 15.5 14.6667 15.5C6.83333 15.5 0.5 9.16667 0.5 1.33333C0.5 0.833333 0.833333 0.5 1.33333 0.5H4.25C4.75 0.5 5.08333 0.833333 5.08333 1.33333C5.08333 2.33333 5.25 3.33333 5.58333 4.33333C5.66667 4.58333 5.58333 4.91667 5.41667 5.16667L3.5 7Z" fill="#374561" fill-opacity="0.7"/>
</svg>
